<?xml version="1.0" encoding="utf-8"?>
<!-- Generator: Adobe Illustrator 27.5.0, SVG Export Plug-In . SVG Version: 6.00 Build 0)  -->
<svg version="1.1" id="logo" class="Title__svg" xmlns="http://www.w3.org/2000/svg" xmlns:xlink="http://www.w3.org/1999/xlink" x="0px" y="0px" viewBox="0 0 841.89 595.28" style="enable-background:new 0 0 841.89 595.28;" xml:space="preserve" width="841.8900146484375" height="595.280029296875">
	<g>
		<g>
			<path class="st0 svg-elem-1" d="M71.21,230.71c5.53-7.12,16.55-19.52,26.67-17.72c3.73,0.66,6.37,3.86,8.09,7.01
				c0.44,0.81,1.25,3.68,1.37,4.83c0.55,5.46-0.45,11.03-1.67,16.34c-3.67,15.9-10.17,31.17-16.97,45.94
				c-6.77,14.68-14.19,29.05-21.96,43.22c-4.21,7.67-8.5,15.31-13.01,22.8c3.06,1.79,6.12,3.58,9.18,5.37
				c8-16.95,18.18-33.79,30.78-47.7c6.71-7.4,16.19-16.96,27.01-16.87c8.95,0.07,17.05,2.37,26.04,0.31
				c22.67-5.2,33.84-31.28,41.99-50.41c5.67-13.3,10.92-26.86,15.38-40.62c1.04-3.2,3.14-7.97,1.19-11.19
				c-6.94-11.42-15.99,12.2-17.69,15.92c-7.09,15.56-13.58,31.41-19.74,47.37c-6.99,18.11-13.58,36.42-18.97,55.08
				c-3.74,12.94-8.49,27.75-7.23,41.4c0.43,4.66,1.85,9.64,6.29,11.99c7.56,4,18.25-3.04,24.3-6.79c22.57-14,39.56-37.19,52.23-60.14
				c0.88-1.6,1.75-3.2,2.56-4.83c3.01-6.1-6.07-11.49-9.18-5.37c-5.44,10.69-10.27,21.78-14.47,33.01
				c-2.92,7.82-5.6,15.86-6.83,24.14c-0.9,6.12-1.45,13.79,3.2,18.66c8.8,9.21,22.14-3.79,28.4-9.82
				c12.22-11.76,22.83-25.24,33.17-38.64c6.95-9.01,13.77-18.15,20.28-27.48c-3.06-1.79-6.12-3.58-9.18-5.37
				c-2.56,5.6-4.68,13.18-0.88,18.69c3.29,4.78,9.34,5.01,14.53,3.97c1.49-0.3,2.91-0.81,4.38-1.21c0.89-0.24,0.89-0.3,0.9-0.22
				c0.03,0.17-3.61-2.35-2.59-2.54c-0.07,0.01,0.15-0.41-0.09,0.65c-0.15,0.67-0.36,1.33-0.57,1.98c-0.57,1.74-1.2,3.1-2,4.78
				c-1.99,4.18-4.24,8.24-6.48,12.3c-4.75,8.61-9.91,17.21-13.28,26.48c-1.93,5.33-3.68,15.07,3.87,16.97
				c5.59,1.41,11.09-4.07,14.79-7.42c14.55-13.16,27.25-28.24,41.79-41.44c7.89-7.16,16.26-14.24,25.87-18.98
				c3.31-1.63,7.4-3.01,10.46-3.07c3.25-0.06,5.48,0.66,7.81,2.83c-0.46-1.72-0.91-3.45-1.37-5.17
				c-3.94,10.33-9.87,22.22-16.13,32.59c-7.58,12.55-20.35,32.88-37.44,31.45c1.53,0.88,3.06,1.75,4.59,2.63
				c-0.18-0.39,0.5,1.46-0.13-0.37c-0.47-1.38-0.96-2.74-1.35-4.15c-1.44-5.16-1.85-8.01-1.8-13.26c0.12-13.9,7.91-26.02,20.2-33.68
				c12.55-7.81,27.33-11.32,41.78-13.56c-2-2.6-4-5.21-6-7.81c-4.03,8.59-7.71,17.37-11.14,26.22
				c-4.62,11.92-10.85,26.14-10.16,39.21c0.29,5.61,3.01,11.3,9.31,11.68c6.71,0.4,12.98-4.58,17.93-8.47
				c11.75-9.24,21.92-20.46,31.98-31.45c12.44-13.59,24.54-27.52,35.92-42.02c12.38-15.78,24.86-32.37,33.13-50.77
				c2.28-5.08,5.75-12.05,5.24-17.91c-0.39-4.45-4.58-6.48-8.63-6.68c-6.16-0.31-11.72,3.67-15.96,7.71
				c-9.99,9.52-16.89,22.54-22.98,34.73c-13.26,26.52-23.32,54.68-32.62,82.78c-3.32,10.04-6.5,20.13-9.6,30.24
				c-2.03,6.63,7.93,9.15,10.25,2.83c7.35-20,17.72-42.11,32.82-57.82c5.96-6.2,18.48-15.37,26.09-7.54c0.12,0.12,0.59,1.35,0.5,1.84
				c-0.39,2.22-1,3.51-2.19,5.47c-2.92,4.82-7.29,8.9-11.71,12.35c-4.97,3.88-10.71,7.42-16.76,9.31c-2.64,0.82-4.34,1.24-6.94,1.02
				c-0.96-0.08-1.57-0.34-2.26-1.6c-3.03-5.54-10.81-1.58-9.71,4.1c3.18,16.52,15.21,36.89,34.88,31.72
				c21.05-5.53,33.29-29.08,46.94-43.9c9.14-9.91,22.77-23.21,35.87-24.66c0.99-0.11,1.98-0.12,2.97-0.13c0.45,0,0.9,0.04,1.35,0.07
				c0.98,0.07-0.87-0.23,0.63,0.09c0.72,0.15,1.42,0.35,2.13,0.55c1.72,0.47-0.4-0.39,1.02,0.4c0.44,0.24,0.87,0.52,1.32,0.75
				c1.26,0.65,0.52,0.03,0.1,0.01c0.21,0.01,0.66,0.58,0.82,0.75c-0.46-1.72-0.91-3.45-1.37-5.17c-2.16,8.67-5.49,17.19-9.42,25.19
				c-6.58,13.41-16.01,28-30.48,33.75c-5.28,2.1-13.88,3.67-18.33,1.04c-1.13-0.67-1.37-1.14-1.67-1.98
				c-0.55-1.53-0.38-3.53,0.04-5.37c3.02-13.14,13.75-24.74,23.49-33.47c10.81-9.69,27.5-21.41,42.89-17.05
				c-1.06-2.6-2.12-5.21-3.18-7.81c-7.44,14.73-14.34,29.96-19.64,45.59c-2.5,7.37-6.29,17.32-3.79,25.15
				c3.46,10.8,15.41,5.49,21.75,0.96c8.1-5.79,15.31-12.81,22.28-19.89c12.34-12.53,23.96-25.76,35.39-39.12
				c-2.78-2.15-5.57-4.29-8.35-6.44c-3.52,6.85-6.7,13.88-9.7,20.96c-4.78,11.29-9.83,23.34-10.81,35.7
				c-0.84,10.63,5.46,18.77,16.71,15.63c17.19-4.8,31.41-20.3,40.93-34.65c6.6-9.93,12.29-21.15,15.68-32.63
				c1.97-6.67-7.89-9.12-10.25-2.83c-5.16,13.78-9.84,27.94-13.03,42.32c-1.56,7.02-4.37,17.18-0.73,24.02
				c4.83,9.08,14.84,2.66,20.12-2.11c6.4-5.78,11.85-12.66,17.13-19.44c9.68-12.42,18.69-25.35,27.5-38.4
				c-3.06-1.79-6.12-3.58-9.18-5.37c-3.39,6.3-6.32,12.94-8.68,19.69c-2.72,7.75-6.56,20.22,0.86,26.61
				c7.46,6.43,23.05,0.82,28.08-6.11c6.2-8.54,13.58-17.06,21.74-24.33c9.54-8.5,25.68-19.99,38.17-10.33
				c-0.28-2.15-0.55-4.29-0.83-6.44c-11.24,18.81-23.82,38.37-39.79,53.5c-3.46,3.28-7.56,6.71-11.15,7.46
				c-1.28,0.27,0.61-0.03-0.31,0.05c-0.26,0.02-0.88-0.14-1.09-0.03c0.91-0.47-0.02,0.04,0.35,0.04c0.67-0.01-0.83-0.58-0.38-0.2
				c-0.18-0.15-0.32-0.25-0.76-0.97c-0.81-1.3-0.7-1.19-1.2-2.89c-0.97-3.32-1.24-6.78-1.35-10.22c-0.04-1.19-0.06-2.38-0.05-3.57
				c0-1.47,0.13-3.11-0.66-0.67c0.11-0.33,0.31-0.67,0.48-0.98c2.53-4.63,5.16-9.14,8.26-13.43c12.64-17.43,31.84-30.36,54.04-24.41
				c-1.06-2.6-2.12-5.21-3.18-7.81c-6.84,12.44-13.07,25.38-18.13,38.64c-2.72,7.13-5.91,15.38-5.34,23.16
				c0.61,8.37,7.46,12.12,15.21,9.6c6-1.96,11.41-5.84,16.39-9.6c9.11-6.87,17.6-14.52,25.9-22.34c4.99-4.7-2.54-12.21-7.52-7.52
				c-10.81,10.18-22.14,21.48-35.51,28.3c-1.45,0.74-1.8,0.89-3.73,1.37c-1.45,0.36,0.46-0.53-0.68,0.07
				c-0.38,0.2-0.16-0.08,0.53,0.29c-1.15-0.62,0.79,0.9-0.09-0.03c1.95,2.06-1.26-1.27,0.45,0.81c-0.22-0.26-0.36-1.06-0.38-1.41
				c0.09,1.89-0.01-0.56,0.01-0.96c0.14-2.96,0.46-4.7,1.51-8.48c1.09-3.94,2.47-7.79,3.95-11.6c2.9-7.44,6.42-14.98,10.11-22.4
				c2.1-4.22,4.24-8.42,6.51-12.55c1.64-2.98,0.21-6.9-3.18-7.81c-23.34-6.26-44.98,4.14-60.16,21.81
				c-4.92,5.72-9.31,11.97-12.92,18.59c-3.18,5.83-2.77,12.11-2.02,18.65c0.73,6.38,2.32,14.1,8.38,17.6
				c5.14,2.97,11.19,1.16,15.93-1.7c12.94-7.81,22.65-21.72,31.35-33.72c6.87-9.48,13.41-19.25,19.42-29.3
				c1.08-1.81,0.99-5.03-0.83-6.44c-24.35-18.81-52.07,6.9-67.57,25.25c-2.96,3.5-5.8,7.11-8.5,10.82c-0.44,0.6-0.88,1.52-1.44,2.02
				c2.05-1.83-0.42-0.63-1.49-0.14c-1.68,0.76-3.4,1.43-5.19,1.91c-2.01,0.55-3.41,0.69-4.59,0.35c0.8,0.23-0.04,0.4-0.14-0.29
				c0.08,0.56,0.13,0.48-0.09-0.86c-0.39-2.36,0.49-6.84,1.55-10.47c2.16-7.38,5.29-14.46,8.93-21.24c3.27-6.07-5.37-11.01-9.18-5.37
				c-11.96,17.71-24.01,36.11-38.83,51.62c-3.23,3.38-5.58,6.08-9.35,7.77c1.49-0.67-0.1,0.22-0.38,0.04
				c-0.25-0.17,1.11,0.03,1.06,0.01c0.71,0.2,1.63,1.1,1.42,1.21c0,0-0.33-1.25-0.33-1.31c-0.12-1.1,0.12,1.37,0.02,0.21
				c-0.03-0.33-0.07-0.66-0.07-0.99c0-1.71,0.04-3.38,0.2-5.09c0.03-0.37,0.08-0.74,0.12-1.11c0.11-0.91-0.19,1.31,0.02-0.19
				c0.14-0.97,0.3-1.94,0.47-2.9c0.4-2.27,0.89-4.52,1.41-6.76c2.03-8.73,4.66-17.32,7.46-25.82c1.65-4.99,3.35-9.97,5.2-14.89
				c-3.42-0.94-6.83-1.88-10.25-2.83c-6.62,22.41-21.83,45.62-42.59,56.93c-2.43,1.32-5.07,2.76-7.84,3.24
				c-0.59,0.1-0.59,0.12-1.76,0.08c0.73,0.03-0.43-0.33,0.18,0.05c-0.08-0.05-0.04-0.01-0.12-0.26c-0.39-1.27,0.08,1.1-0.1-0.31
				c-0.04-0.3-0.17-0.6-0.22-0.9c-0.05-0.3-0.12-0.53-0.11-1.68c0.02-1.21,0.06-2.41,0.2-3.62c1.15-9.83,5.54-20.51,9.48-29.9
				c2.91-6.92,6.05-13.77,9.48-20.45c2.61-5.08-4.22-11.26-8.35-6.44c-15.87,18.54-31.96,37.69-50.66,53.5
				c-2.12,1.79-4.19,3.45-6.51,4.98c-0.96,0.64-1.93,1.25-2.95,1.8c-0.37,0.2-0.75,0.39-1.13,0.58c-1.33,0.66,0.23-0.09-0.44,0.19
				c-0.69,0.29-2.33,1.24-0.89,0.38c-0.09,0.05-0.64,0.09-0.73,0.03c-0.54-0.31,1.17,0.69,0.34,0.04c0.01,0.01,1.14,0.73,0.94,0.55
				c0.21,0.18,0.12,0.45,0.37,0.67c-0.21-0.19-0.44-2.11-0.28-1c0.14,0.93-0.02-1.05,0-1.51c0.11-2.75-0.02-1.52,0.47-4.07
				c0.82-4.3,2.12-8.52,3.51-12.67c3.31-9.8,6.83-18.01,10.98-27.15c2.46-5.43,4.99-10.83,7.68-16.15c1.54-3.05,0.28-6.83-3.18-7.81
				c-15.16-4.3-31.13,3.09-43.27,11.79c-13.02,9.34-25.28,21.77-32.45,36.26c-4.93,9.96-8,24.88,4.87,30.22
				c15.23,6.32,33.35-3.25,43.86-14.03c11.2-11.48,18.62-26.35,24.08-41.28c2.03-5.55,6.61-14.03,0.9-18.5
				c-6.25-4.9-14.82-5.24-22.25-3.24c-18.82,5.07-33.96,21.91-45.8,36.36c-8.19,10-15.78,21.42-26.98,28.37
				c-5.02,3.11-10.86,4.9-15.59,2.31c-7.22-3.95-10.71-13.52-12.67-21.43c-0.17-0.67-0.33-1.34-0.46-2.02
				c-3.24,1.37-6.48,2.73-9.71,4.1c7.03,12.84,25.04,5.02,34.19-0.58c10.31-6.3,25.11-17.78,25.42-31.21
				c0.38-16.08-20.79-17.51-31.49-12.16c-14.94,7.47-25.05,24.09-32.84,38.2c-6.11,11.06-11.54,22.68-15.9,34.55
				c3.42,0.94,6.83,1.88,10.25,2.83c8.25-26.98,17.09-53.83,27.6-80.02c6.14-15.3,12.85-30.52,21.26-44.72
				c4.64-7.83,8.5-13.74,15.09-19.67c0.43-0.39,1.83-1.42,0.56-0.49c0.5-0.37,1-0.75,1.53-1.07c0.84-0.52,1.69-0.98,2.58-1.41
				c-1.79,0.87,0.41-0.01,1.11-0.26c0.96-0.34-1.23-0.28,0.56-0.04c1.77,0.25-1.22-0.47,0.3,0.01c1.49,0.47-0.03-0.08-0.05-0.09
				c1.31,1.06-0.37-0.45-0.1-0.19c-0.52-1.25-1.04-2.51-1.56-3.76c0.02,0.22-0.11,0.81-0.01,0.96c0.4,0.57-0.21,1.24,0.04-0.13
				c-0.12,0.62-0.22,1.25-0.36,1.87c-1.13,5.11-2.72,8.51-4.66,12.54c-11.05,22.94-27.59,43.43-43.91,62.76
				c-13.51,16-27.46,31.9-42.56,46.42c-4.23,4.07-8.59,8.15-13.39,11.56c-1.53,1.08-3.11,2.1-4.76,2.99
				c-1.49,0.81-1.18,0.77-3.22,1.21c0.05-0.01,0.59,0.37-0.47-0.05c1.41,0.56-0.21-0.4,1.17,0.34c-1.16-0.62,0.88,0.86-0.08-0.04
				c2.41,2.24,0.21,0.46,0.38,0.47c-0.75-0.06,0.33-0.74,0.05,0.3c0.07-0.27-0.38-1.16-0.42-1.46c-0.08-0.66,0.02,1.1-0.04-0.5
				c-0.06-1.4,0-2.78,0.13-4.17c0.11-1.31,0.06-0.62,0.15-1.21c0.12-0.77,0.26-1.54,0.41-2.3c0.36-1.85,0.79-3.68,1.27-5.51
				c1.03-3.96,2.25-7.86,3.57-11.73c4.29-12.63,8.82-23.59,14.32-35.33c2.08-4.43-1.32-8.53-6-7.81
				c-23.17,3.59-49.94,11.48-62.95,32.78c-7.11,11.65-8.3,25.85-5.14,38.93c0.74,3.05,1.72,6.06,3.04,8.91
				c0.81,1.75,2.83,2.48,4.59,2.63c20.26,1.69,35.48-18.95,44.97-34.04c7.47-11.87,13.85-24.69,18.85-37.8
				c0.64-1.68-0.09-3.98-1.37-5.17c-13.1-12.24-31.08-2.76-43.16,6.05c-16.61,12.11-30.72,27.29-45,41.97
				c-4.99,5.13-10.81,11.39-15.94,15.36c-0.1,0.08-1.54,1.06-2.2,1.49c-0.67,0.45-0.87,0.86-0.15,0.18
				c-0.71,0.69-0.43,0.03,0.02,0.13c0.31,0.07,1.82,0.46,2.58,1.14c0.02,0.01,1.08,1.29,0.41,0.5c0.58,0.68-0.11,0.39,0.16,0.28
				c-0.02,0.01-0.06,1.1,0.03-0.43c0.05-0.93-0.08-0.09,0.2-1.34c1.89-8.29,6.89-16.05,10.95-23.41c4.28-7.75,9.22-15.58,11.99-24.04
				c2.69-8.19-1.51-15.31-10.73-12.94c-2.53,0.65-5.04,1.81-7.69,1.23c0.71,0.16,0.19,0.43,0.2-1.11c0.01-1.29,0.33-2.52,0.86-4.21
				c0.22-0.68,0.47-1.35,0.72-2.02c0.35-0.95-0.51,1.13-0.12,0.28c2.84-6.21-5.23-11.03-9.18-5.37
				c-13.32,19.08-27.48,37.86-43.17,55.06c-4.49,4.92-9.15,9.81-14.31,14.04c-1.68,1.38-3.5,2.66-5.46,3.77
				c-1.17,0.66-0.94,0.48-1.32,0.64c-0.38,0.16-0.81,0.18-1.18,0.34c0.12-0.05-0.2,0.34-0.36-0.03c0.26,0.04,0.51,0.07,0.77,0.11
				c-0.2-0.04-0.4-0.1-0.6-0.17c0.84,1.61,0.14-0.67,0.81,0.37c-0.22-0.34-0.44-0.42-0.58-1.03c-0.52-2.14-0.54-4.41-0.26-7.07
				c0.75-7.11,3.14-14.17,5.5-20.88c4.13-11.72,9.14-23.2,14.78-34.28c-3.06-1.79-6.12-3.58-9.18-5.37
				c-8.33,16.87-19.68,32.99-32.88,46.35c-8.75,8.85-19.7,18.13-32.04,21.29c-1.33,0.34,0.91-0.25,0.1-0.01
				c-0.39,0.12-1.43-0.26-0.46,0.04c0.4,0.12,0.33,0.1,0.39,0.15c-0.15-0.11,0.31,0.51-0.04-0.2c-0.55-1.15,0.3,0.96,0.01,0.12
				c-0.15-0.44-0.3-0.88-0.41-1.33c-0.1-0.4-0.16-0.8-0.25-1.2c-0.12-0.61,0.06,1.15-0.04-0.42c-0.07-1.15-0.12-2.28-0.1-3.43
				c0.04-2.34,0.43-6.15,0.58-7.18c1.01-7.03,2.68-13.97,4.51-20.83c4.63-17.31,10.53-34.3,16.77-51.08
				c5.88-15.79,12.14-31.48,18.85-46.85c2.38-5.45,4.8-10.88,7.4-16.23c0.85-1.75,1.71-3.49,2.64-5.19c0.31-0.57,0.66-1.12,0.97-1.7
				c0.6-1.11,1.24-0.87,0.01-0.16c-1.41,0.81-6.71,1.78-8.28-2.55c-0.22-0.62,0.1-2.38-0.13-1.54c-0.42,1.53-0.8,3.06-1.28,4.57
				c-3.72,11.82-8.23,23.45-12.9,34.92c-5.11,12.55-10.7,25.57-18.91,36.46c-4.55,6.04-10.33,11.16-17.32,13.05
				c-7.28,1.96-14.98,0.24-22.81-0.33c-10.93-0.8-20.96,5.68-28.79,12.62c-16.18,14.34-28.08,34.13-37.82,53.24
				c-0.66,1.3-1.32,2.6-1.94,3.91c-2.88,6.1,5.6,11.32,9.18,5.37c13.28-22.07,25.42-45,36.08-68.45
				c7.21-15.87,14.39-32.43,17.7-49.64c2.63-13.69,2-31.02-13.55-36.91c-15-5.69-30.93,8.75-39.43,19.7
				C59.55,228.53,67.02,236.11,71.21,230.71L71.21,230.71z"></path>
		</g>
	</g>
	<g>
		<g>
			<path class="st0 svg-elem-2" d="M239.5,256.21c-0.13,0-0.25,0-0.38,0c-1.03-0.04-2,0.18-2.89,0.65c-0.93,0.3-1.73,0.82-2.41,1.55
				c-0.73,0.68-1.25,1.48-1.55,2.41c-0.47,0.89-0.68,1.86-0.65,2.89c0.09,0.66,0.18,1.33,0.27,1.99c0.36,1.27,1,2.37,1.93,3.31
				c0.51,0.39,1.01,0.78,1.52,1.17c1.17,0.68,2.43,1.02,3.79,1.02c0.13,0,0.25,0,0.38,0c1.03,0.04,2-0.18,2.89-0.65
				c0.93-0.3,1.73-0.82,2.41-1.55c0.73-0.68,1.25-1.48,1.55-2.41c0.47-0.89,0.68-1.86,0.65-2.89c-0.09-0.66-0.18-1.33-0.27-1.99
				c-0.36-1.27-1-2.37-1.93-3.31c-0.51-0.39-1.01-0.78-1.52-1.17C242.12,256.56,240.86,256.22,239.5,256.21L239.5,256.21z"></path>
		</g>
	</g>
	<g>
		<path class="st0 svg-elem-3" d="M23.68,403.86c123.98-9.01,267.7-18.96,391.99-27.1c129.99-9.7,262.22-17.59,392.55-17.19
			c0,0,0.08,1.41,0.08,1.41c-129.44,15.06-261.75,22.1-391.99,27.1c-106.38,5.09-237.24,10.76-343.47,15.22
			c0,0-49.08,1.98-49.08,1.98S23.68,403.86,23.68,403.86L23.68,403.86z"></path>
	</g>
</svg>
